<?xml version="1.0" encoding="utf-8"?>
<!-- Generator: Adobe Illustrator 24.0.3, SVG Export Plug-In . SVG Version: 6.00 Build 0)  -->
<svg version="1.1" id="Layer_1" xmlns="http://www.w3.org/2000/svg" xmlns:xlink="http://www.w3.org/1999/xlink" x="0px" y="0px"
	viewBox="0 0 240 240" style="enable-background:new 0 0 240 240;" xml:space="preserve">
<style type="text/css">
	.st0{fill:#6EA6FF;}
	.st1{fill:#97C1FF;}
	.st2{fill:#0062FF;}
	.st3{fill:#C9DEFF;}
</style>
<title>Group 7</title>
<desc>Created with Sketch.</desc>
	<g>
		<path class="st0" d="M64.2,140.5c0.6,30.7,25.7,55.5,56.5,55.5c10.1,0,20.4-3.1,28.6-7.8l-27.5-47.9L64.2,140.5z"/>
		<path class="st1" d="M121.7,137.6l0-56.2c-5.1,0-9.4,0.3-14.2,1.6L121.7,137.6z"/>
		<path class="st2" d="M179.3,137.9c0-31.2-24.8-56.6-56.1-56.6l0,57.7l27.3,48.2C167.7,177.5,179.3,159.1,179.3,137.9z"/>
		<path class="st3" d="M105.8,83.8c-24,6.5-41.7,28.5-41.7,54.6c0,0.4,0-0.4,0,0l56.2,0L105.8,83.8z"/>
	</g>
</svg>
